<svg width="55" height="52" viewBox="0 0 55 52" fill="none" xmlns="http://www.w3.org/2000/svg">
<path fill-rule="evenodd" clip-rule="evenodd" d="M27.361 51.0113C27.0871 51.0652 26.8029 51.0831 26.515 51.0613C17.6182 50.3862 9.19723 45.472 4.39935 37.1618C-0.398595 28.8515 -0.443917 19.1015 3.42006 11.059C3.98104 9.89141 5.19711 9.18933 6.48877 9.28733C9.8042 9.53889 13.0535 10.3791 16.0739 11.7645C18.353 7.32058 21.7249 3.5296 25.8349 0.746264C26.9074 0.0199019 28.3103 0.0199016 29.3829 0.746264C33.437 3.49181 36.773 7.21782 39.0504 11.5838C41.9562 10.306 45.0646 9.52776 48.2333 9.28733C49.525 9.18933 50.741 9.89141 51.302 11.059C55.166 19.1015 55.1207 28.8515 50.3227 37.1618C45.5249 45.472 37.1039 50.3862 28.2071 51.0613C27.9192 51.0831 27.635 51.0652 27.361 51.0113ZM33.8795 45.9736C39.2123 44.1599 43.9292 40.4792 46.9641 35.2227C51.0037 28.2258 51.1352 20.044 48.0212 13.1982C45.4641 13.4462 42.9614 14.1002 40.6132 15.1328C41.7587 18.2835 42.3836 21.6841 42.3836 25.2307C42.3836 33.3136 39.1382 40.6386 33.8795 45.9736ZM35.6168 13.3872C33.7142 9.73462 30.9579 6.59586 27.6089 4.23434C24.1881 6.64644 21.3857 9.86941 19.4799 13.6226C22.5132 15.5624 25.208 18.1141 27.361 21.2234C29.6023 17.9867 32.4306 15.3542 35.6168 13.3872ZM29.5584 24.9849C31.507 21.6608 34.1318 18.9748 37.1586 17.0017C38.0321 19.5852 38.5053 22.3528 38.5053 25.2307C38.5053 31.8749 35.9831 37.9306 31.8364 42.4922C32.9584 36.73 32.2798 30.5929 29.5584 24.9849ZM25.1637 24.9849C23.3027 21.8103 20.825 19.2177 17.9694 17.2722C17.1533 19.7781 16.7124 22.453 16.7124 25.2307C16.7124 31.5341 18.9825 37.3079 22.7563 41.7787C21.823 36.2256 22.5543 30.362 25.1637 24.9849ZM27.361 44.3876C28.8169 39.7578 28.8768 34.7072 27.361 29.9191C25.8453 34.7072 25.9052 39.7578 27.361 44.3876ZM7.75802 35.2227C10.9307 40.718 15.9418 44.491 21.5731 46.2091C16.1763 40.8552 12.8342 33.4333 12.8342 25.2307C12.8342 21.7562 13.4338 18.4218 14.5353 15.3253C12.0648 14.1812 9.41339 13.4613 6.70086 13.1982C3.58684 20.044 3.71838 28.2258 7.75802 35.2227Z" fill="#D946EF"/>
</svg>